<?xml version="1.0" standalone="no"?>
<!DOCTYPE svg PUBLIC "-//W3C//DTD SVG 20010904//EN"
 "http://www.w3.org/TR/2001/REC-SVG-20010904/DTD/svg10.dtd">
<svg version="1.0" xmlns="http://www.w3.org/2000/svg"
 width="118.000000pt" height="53.000000pt" viewBox="0 0 118.000000 53.000000"
 preserveAspectRatio="xMidYMid meet">

<g transform="translate(0.000000,53.000000) scale(0.100000,-0.100000)"
fill="#000000" stroke="none">
<path d="M0 265 l0 -265 590 0 590 0 0 265 0 265 -590 0 -590 0 0 -265z m480
55 c0 -5 -4 -10 -10 -10 -5 0 -10 5 -10 10 0 6 5 10 10 10 6 0 10 -4 10 -10z
m410 -65 c0 -43 -4 -75 -10 -75 -6 0 -10 32 -10 75 0 43 4 75 10 75 6 0 10
-32 10 -75z m-750 55 c0 -5 -13 -10 -30 -10 -41 0 -39 -23 5 -49 37 -22 44
-41 21 -60 -17 -14 -68 -11 -73 5 -2 6 10 8 32 6 47 -6 47 19 0 47 -37 21 -43
39 -23 59 14 14 68 16 68 2z m450 -10 c0 -11 -4 -20 -10 -20 -5 0 -10 9 -10
20 0 11 5 20 10 20 6 0 10 -9 10 -20z m247 4 c3 -9 1 -25 -5 -34 -9 -14 -8
-19 3 -24 18 -7 20 -37 3 -54 -7 -7 -27 -12 -45 -12 l-33 0 0 70 0 70 35 0
c24 0 38 -5 42 -16z m-307 -9 c0 -8 6 -15 13 -16 10 0 10 -2 0 -6 -7 -2 -13
-20 -13 -38 0 -18 6 -35 13 -38 6 -2 9 -8 5 -12 -17 -19 -38 6 -38 45 0 25 -5
40 -12 41 -10 0 -10 2 0 6 6 2 12 11 12 19 0 8 5 14 10 14 6 0 10 -7 10 -15z
m-340 -54 c0 -24 5 -41 14 -44 21 -8 36 13 36 50 0 18 5 33 10 33 6 0 10 -22
10 -48 0 -48 0 -49 -32 -50 -18 0 -38 4 -45 10 -15 12 -18 88 -3 88 6 0 10
-18 10 -39z m228 27 c14 -12 16 -88 2 -88 -5 0 -10 18 -10 39 0 24 -5 41 -14
44 -20 8 -26 -2 -26 -45 0 -21 -4 -38 -10 -38 -5 0 -10 15 -10 34 0 69 -44 66
-53 -4 -3 -28 -4 -25 -5 16 l-2 50 58 1 c31 0 63 -4 70 -9z m62 -38 c0 -27 -4
-50 -10 -50 -5 0 -10 23 -10 50 0 28 5 50 10 50 6 0 10 -22 10 -50z m200 39
c0 -6 -7 -8 -16 -5 -31 12 -36 -7 -8 -29 18 -14 25 -27 21 -38 -7 -19 -52 -23
-63 -6 -4 7 2 9 16 7 13 -2 25 3 27 10 3 6 0 12 -5 12 -6 0 -18 7 -27 16 -12
12 -13 19 -4 30 14 17 59 19 59 3z m324 -5 c21 -20 20 -43 -1 -66 -18 -21 -53
-24 -71 -6 -15 15 -15 61 0 76 17 17 54 15 72 -4z m126 -45 c0 -39 -5 -63 -16
-73 -18 -18 -74 -22 -74 -5 0 6 7 8 16 5 19 -7 54 10 54 28 0 8 -10 11 -30 8
-24 -3 -32 0 -41 21 -18 40 10 77 56 75 l35 -1 0 -58z"/>
<path d="M780 285 c0 -16 6 -25 15 -25 21 0 31 30 14 41 -23 14 -29 11 -29
-16z"/>
<path d="M780 220 c0 -25 3 -31 16 -26 9 3 20 6 25 6 5 0 9 9 9 20 0 11 -4 20
-9 20 -5 0 -16 3 -25 6 -13 5 -16 -1 -16 -26z"/>
<path d="M953 263 c-7 -3 -13 -17 -13 -33 0 -31 16 -42 43 -28 35 18 7 74 -30
61z"/>
<path d="M1067 259 c-21 -12 -22 -42 -2 -59 12 -10 18 -10 30 0 32 26 7 78
-28 59z"/>
</g>
</svg>
